<svg version="1.1" id="gaming-console_svg__Layer_1" xmlns="http://www.w3.org/2000/svg" x="0" y="0" viewBox="172.8 0 655.1 682.3" xml:space="preserve"><style>.gaming-console_svg__st4{fill:#663c3b}.gaming-console_svg__st5{fill:#fec556}.gaming-console_svg__st6{fill:#f29940}.gaming-console_svg__st7{fill:#835559}.gaming-console_svg__st8{fill:#95676b}.gaming-console_svg__st10,.gaming-console_svg__st11,.gaming-console_svg__st9{fill:none;stroke:#663c3b;stroke-linecap:round;stroke-linejoin:round;stroke-miterlimit:10}.gaming-console_svg__st9{stroke-width:6}.gaming-console_svg__st10{stroke-width:3}.gaming-console_svg__st11{stroke-width:8}.gaming-console_svg__st12{opacity:.17}.gaming-console_svg__st14{fill:none;stroke:#663c3b;stroke-width:2;stroke-linecap:round;stroke-linejoin:round;stroke-miterlimit:10}</style><path id="gaming-console_svg__XMLID_20_" d="M692.3 414.8h-380c-72.9 0-132 59.1-132 132s59.1 132 132 132c51.3 0 95.8-29.3 117.6-72h144.8c21.8 42.7 66.3 72 117.6 72 72.9 0 132-59.1 132-132s-59.1-132-132-132z" opacity=".41" stroke="#000" stroke-width="10" stroke-linecap="round" stroke-linejoin="round" stroke-miterlimit="10"/><path id="gaming-console_svg__XMLID_19_" d="M502.3 382.5V263.1c0-13.7-11.1-24.8-24.8-24.8H290c-13.7 0-24.8-11.1-24.8-24.8v0c0-13.7 11.1-24.8 24.8-24.8h397.5c13.7 0 24.8-11.1 24.8-24.8v0c0-13.7-11.1-24.8-24.8-24.8H527c-13.7 0-24.8-11.1-24.8-24.8V9" opacity=".41" fill="none" stroke="#000" stroke-width="10" stroke-linecap="round" stroke-linejoin="round" stroke-miterlimit="10"/><path id="gaming-console_svg__XMLID_43_" d="M502.3 369.2V249.8c0-13.7-11.1-24.8-24.8-24.8H290c-13.7 0-24.8-11.1-24.8-24.8v0c0-13.7 11.1-24.8 24.8-24.8h397.5c13.7 0 24.8-11.1 24.8-24.8v0c0-13.7-11.1-24.8-24.8-24.8H527c-13.7 0-24.8-11.1-24.8-24.8V0" fill="none" stroke="#663c3b" stroke-width="10" stroke-linejoin="round" stroke-miterlimit="10"/><path id="gaming-console_svg__XMLID_37_" class="gaming-console_svg__st4" d="M473.3 379h58v12.5h-58z"/><path id="gaming-console_svg__XMLID_41_" class="gaming-console_svg__st4" d="M481.5 372.8H523v9.8h-41.5z"/><path id="gaming-console_svg__XMLID_54_" class="gaming-console_svg__st4" d="M487 366.5h30.5v9.4H487z"/><path id="gaming-console_svg__XMLID_44_" class="gaming-console_svg__st5" d="M692.3 391.8h-380c-72.9 0-132 59.1-132 132s59.1 132 132 132c51.3 0 95.8-29.3 117.6-72h144.8c21.8 42.7 66.3 72 117.6 72 72.9 0 132-59.1 132-132s-59.1-132-132-132z"/><path id="gaming-console_svg__XMLID_74_" class="gaming-console_svg__st6" d="M481.7 443.6h-28c-2.2 0-4-1.8-4-4s1.8-4 4-4h28c2.2 0 4 1.8 4 4s-1.7 4-4 4z"/><path id="gaming-console_svg__XMLID_73_" class="gaming-console_svg__st6" d="M560.4 443.9h-56.9c-2.2 0-4-1.8-4-4s1.8-4 4-4h56.9c2.2 0 4 1.8 4 4s-1.7 4-4 4z"/><path id="gaming-console_svg__XMLID_71_" class="gaming-console_svg__st6" d="M560.4 460.4H453.6c-2.2 0-4-1.8-4-4s1.8-4 4-4h106.8c2.2 0 4 1.8 4 4s-1.8 4-4 4z"/><path id="gaming-console_svg__XMLID_67_" class="gaming-console_svg__st6" d="M452.4 542.7c-3.5-3.5-3.5-9.2 0-12.7l29.7-29.7c3.5-3.5 9.2-3.5 12.7 0s3.5 9.2 0 12.7l-29.7 29.7c-3.5 3.5-9.2 3.5-12.7 0z"/><path id="gaming-console_svg__XMLID_56_" class="gaming-console_svg__st6" d="M519.4 542.7c-3.5-3.5-3.5-9.2 0-12.7l29.7-29.7c3.5-3.5 9.2-3.5 12.7 0s3.5 9.2 0 12.7l-29.7 29.7c-3.5 3.5-9.2 3.5-12.7 0z"/><path id="gaming-console_svg__XMLID_53_" class="gaming-console_svg__st6" d="M312.3 403.3h380c71.3 0 129.4 55.6 131.9 125.1.1-1.6.1-3.1.1-4.7 0-72.9-59.1-132-132-132h-380c-72.9 0-132 59.1-132 132 0 1.6 0 3.1.1 4.7 2.4-69.5 60.5-125.1 131.9-125.1z"/><path id="gaming-console_svg__XMLID_52_" class="gaming-console_svg__st6" d="M692.3 638.8c-51.3 0-92.8-21.3-114.6-64H426.9c-21.8 42.7-63.3 64-114.6 64-70 0-127.3-54.6-131.7-123.5-.2 2.8-.3 5.6-.3 8.5 0 72.9 59.1 132 132 132 51.3 0 95.8-29.3 117.6-72h144.8c21.8 42.7 66.3 72 117.6 72 72.9 0 132-59.1 132-132 0-2.9-.1-5.7-.3-8.5-4.4 68.9-61.7 123.5-131.7 123.5z"/><circle id="gaming-console_svg__XMLID_48_" class="gaming-console_svg__st6" cx="312.8" cy="531" r="85"/><circle id="gaming-console_svg__XMLID_46_" class="gaming-console_svg__st7" cx="312.8" cy="523.8" r="84"/><circle id="gaming-console_svg__XMLID_50_" class="gaming-console_svg__st8" cx="312.8" cy="523.8" r="71"/><path id="gaming-console_svg__XMLID_6_" class="gaming-console_svg__st4" d="M363.2 507.8h-34.4v-34.4c0-2.5-2.1-4.6-4.6-4.6h-22.8c-2.5 0-4.6 2.1-4.6 4.6v34.4h-34.4c-2.5 0-4.6 2.1-4.6 4.6v22.8c0 2.5 2.1 4.6 4.6 4.6h34.4v34.4c0 2.5 2.1 4.6 4.6 4.6h22.8c2.5 0 4.6-2.1 4.6-4.6v-34.4h34.4c2.5 0 4.6-2.1 4.6-4.6v-22.8c0-2.6-2.1-4.6-4.6-4.6z"/><circle id="gaming-console_svg__XMLID_7_" class="gaming-console_svg__st9" cx="312.8" cy="523.8" r="84"/><circle id="gaming-console_svg__XMLID_51_" class="gaming-console_svg__st6" cx="692.8" cy="531" r="85"/><circle id="gaming-console_svg__XMLID_49_" class="gaming-console_svg__st7" cx="692.8" cy="523.8" r="84"/><circle id="gaming-console_svg__XMLID_66_" class="gaming-console_svg__st8" cx="692.8" cy="523.8" r="71"/><circle id="gaming-console_svg__XMLID_16_" class="gaming-console_svg__st9" cx="692.8" cy="523.8" r="84"/><path id="gaming-console_svg__XMLID_10_" class="gaming-console_svg__st5" d="M306.3 487.2l5.5-9.6c.4-.7 1.4-.7 1.8 0l5.5 9.6c.4.7-.1 1.6-.9 1.6h-11.1c-.7 0-1.2-.9-.8-1.6z"/><path id="gaming-console_svg__XMLID_12_" class="gaming-console_svg__st5" d="M306.3 560.4l5.5 9.6c.4.7 1.4.7 1.8 0l5.5-9.6c.4-.7-.1-1.6-.9-1.6h-11.1c-.7 0-1.2.9-.8 1.6z"/><path id="gaming-console_svg__XMLID_55_" class="gaming-console_svg__st10" d="M363.2 507.8h-34.4v-34.4c0-2.5-2.1-4.6-4.6-4.6h-22.8c-2.5 0-4.6 2.1-4.6 4.6v34.4h-34.4c-2.5 0-4.6 2.1-4.6 4.6v22.8c0 2.5 2.1 4.6 4.6 4.6h34.4v34.4c0 2.5 2.1 4.6 4.6 4.6h22.8c2.5 0 4.6-2.1 4.6-4.6v-34.4h34.4c2.5 0 4.6-2.1 4.6-4.6v-22.8c0-2.6-2.1-4.6-4.6-4.6z"/><path id="gaming-console_svg__XMLID_11_" class="gaming-console_svg__st5" d="M347.6 517.3l9.6 5.5c.7.4.7 1.4 0 1.8l-9.6 5.5c-.7.4-1.6-.1-1.6-.9v-11.1c0-.7.9-1.2 1.6-.8z"/><path id="gaming-console_svg__XMLID_9_" class="gaming-console_svg__st5" d="M276.2 517.3l-9.6 5.5c-.7.4-.7 1.4 0 1.8l9.6 5.5c.7.4 1.6-.1 1.6-.9v-11.1c0-.7-.9-1.2-1.6-.8z"/><path id="gaming-console_svg__XMLID_45_" class="gaming-console_svg__st11" d="M602 385.8h90.8c19.5 0 38.1 4.1 55 11.4"/><path id="gaming-console_svg__XMLID_36_" class="gaming-console_svg__st11" d="M257.8 397.2c16.9-7.4 35.5-11.4 55-11.4H402"/><path id="gaming-console_svg__XMLID_32_" class="gaming-console_svg__st9" d="M692.3 391.8h-380c-72.9 0-132 59.1-132 132s59.1 132 132 132c51.3 0 95.8-29.3 117.6-72h144.8c21.8 42.7 66.3 72 117.6 72 72.9 0 132-59.1 132-132s-59.1-132-132-132z"/><path id="gaming-console_svg__XMLID_65_" class="gaming-console_svg__st12" d="M706.3 511.5l-39.6 39.6c-8.6 8.6-22.5 8.6-31.1 0-8.6-8.6-8.6-22.5 0-31.1l39.6-39.6c8.6-8.6 22.5-8.6 31.1 0 8.6 8.5 8.6 22.5 0 31.1z"/><path id="gaming-console_svg__XMLID_59_" class="gaming-console_svg__st5" d="M704.3 507.5l-39.6 39.6c-8.6 8.6-22.5 8.6-31.1 0-8.6-8.6-8.6-22.5 0-31.1l39.6-39.6c8.6-8.6 22.5-8.6 31.1 0 8.6 8.5 8.6 22.5 0 31.1z"/><path id="gaming-console_svg__XMLID_2_" class="gaming-console_svg__st10" d="M704.3 507.5l-39.6 39.6c-8.6 8.6-22.5 8.6-31.1 0-8.6-8.6-8.6-22.5 0-31.1l39.6-39.6c8.6-8.6 22.5-8.6 31.1 0 8.6 8.5 8.6 22.5 0 31.1z"/><circle id="gaming-console_svg__XMLID_63_" cx="649.2" cy="531.5" r="14" fill="#32b94d"/><path id="gaming-console_svg__XMLID_8_" class="gaming-console_svg__st14" d="M640.2 530.7c.4-5 4.8-8.6 9.8-8.2"/><circle id="gaming-console_svg__XMLID_18_" class="gaming-console_svg__st10" cx="649.2" cy="531.5" r="14"/><circle id="gaming-console_svg__XMLID_62_" cx="688.8" cy="491.9" r="14" fill="#8bd8f5"/><path id="gaming-console_svg__XMLID_13_" class="gaming-console_svg__st14" d="M679.8 491.9c0-5 4-9 9-9"/><circle id="gaming-console_svg__XMLID_17_" class="gaming-console_svg__st10" cx="688.8" cy="491.9" r="14"/><path id="gaming-console_svg__XMLID_64_" class="gaming-console_svg__st12" d="M752.9 537.7l-39.6 39.6c-8.6 8.6-22.5 8.6-31.1 0-8.6-8.6-8.6-22.5 0-31.1l39.6-39.6c8.6-8.6 22.5-8.6 31.1 0 8.6 8.6 8.6 22.5 0 31.1z"/><path id="gaming-console_svg__XMLID_57_" class="gaming-console_svg__st5" d="M751.9 532.7l-39.6 39.6c-8.6 8.6-22.5 8.6-31.1 0-8.6-8.6-8.6-22.5 0-31.1l39.6-39.6c8.6-8.6 22.5-8.6 31.1 0 8.6 8.6 8.6 22.5 0 31.1z"/><path id="gaming-console_svg__XMLID_35_" class="gaming-console_svg__st10" d="M751.9 532.7l-39.6 39.6c-8.6 8.6-22.5 8.6-31.1 0-8.6-8.6-8.6-22.5 0-31.1l39.6-39.6c8.6-8.6 22.5-8.6 31.1 0 8.6 8.6 8.6 22.5 0 31.1z"/><circle id="gaming-console_svg__XMLID_61_" cx="696.8" cy="556.8" r="14" fill="#fef585"/><path id="gaming-console_svg__XMLID_15_" class="gaming-console_svg__st14" d="M687.8 556.8c0-5 4-9 9-9"/><circle id="gaming-console_svg__XMLID_34_" class="gaming-console_svg__st10" cx="696.8" cy="556.8" r="14"/><circle id="gaming-console_svg__XMLID_33_" cx="736.4" cy="517.2" r="14" fill="#e7503b"/><path id="gaming-console_svg__XMLID_70_" class="gaming-console_svg__st14" d="M727.4 517.2c0-5 4-9 9-9"/><circle id="gaming-console_svg__XMLID_60_" class="gaming-console_svg__st10" cx="736.4" cy="517.2" r="14"/><path id="gaming-console_svg__XMLID_14_" class="gaming-console_svg__st4" d="M452.4 538.7c-3.5-3.5-3.5-9.2 0-12.7l29.7-29.7c3.5-3.5 9.2-3.5 12.7 0s3.5 9.2 0 12.7l-29.7 29.7c-3.5 3.5-9.2 3.5-12.7 0z"/><path id="gaming-console_svg__XMLID_38_" class="gaming-console_svg__st4" d="M519.4 538.7c-3.5-3.5-3.5-9.2 0-12.7l29.7-29.7c3.5-3.5 9.2-3.5 12.7 0s3.5 9.2 0 12.7l-29.7 29.7c-3.5 3.5-9.2 3.5-12.7 0z"/><circle id="gaming-console_svg__XMLID_58_" class="gaming-console_svg__st5" cx="312.8" cy="523.8" r="16"/><path id="gaming-console_svg__XMLID_72_" class="gaming-console_svg__st6" d="M312.8 536.5c-8.1 0-15.1-6.4-15.9-14.4-.1.5-.1 1.1-.1 1.6 0 8.7 7.3 16 16 16s16-7.3 16-16c0-.6 0-1.1-.1-1.6-.9 8-7.8 14.4-15.9 14.4z"/><path id="gaming-console_svg__XMLID_68_" class="gaming-console_svg__st14" d="M300.8 523.8c0-6.5 5.5-12 12-12"/></svg>