<svg id="visual"  viewBox="0 0 600 300" width="600" height="300" xmlns="http://www.w3.org/2000/svg" xmlns:xlink="http://www.w3.org/1999/xlink" version="1.1"><rect x="0" y="0" width="600" height="300" fill="#F7CACA"></rect><defs><linearGradient id="grad1_0" x1="50%" y1="100%" x2="100%" y2="0%"><stop offset="10%" stop-color="#715df2" stop-opacity="1"></stop><stop offset="90%" stop-color="#715df2" stop-opacity="1"></stop></linearGradient></defs><defs><linearGradient id="grad1_1" x1="50%" y1="100%" x2="100%" y2="0%"><stop offset="10%" stop-color="#715df2" stop-opacity="1"></stop><stop offset="90%" stop-color="#a960e2" stop-opacity="1"></stop></linearGradient></defs><defs><linearGradient id="grad1_2" x1="50%" y1="100%" x2="100%" y2="0%"><stop offset="10%" stop-color="#cc69d3" stop-opacity="1"></stop><stop offset="90%" stop-color="#a960e2" stop-opacity="1"></stop></linearGradient></defs><defs><linearGradient id="grad1_3" x1="50%" y1="100%" x2="100%" y2="0%"><stop offset="10%" stop-color="#cc69d3" stop-opacity="1"></stop><stop offset="90%" stop-color="#e277c7" stop-opacity="1"></stop></linearGradient></defs><defs><linearGradient id="grad1_4" x1="50%" y1="100%" x2="100%" y2="0%"><stop offset="10%" stop-color="#f08abe" stop-opacity="1"></stop><stop offset="90%" stop-color="#e277c7" stop-opacity="1"></stop></linearGradient></defs><defs><linearGradient id="grad1_5" x1="50%" y1="100%" x2="100%" y2="0%"><stop offset="10%" stop-color="#f08abe" stop-opacity="1"></stop><stop offset="90%" stop-color="#f79fbb" stop-opacity="1"></stop></linearGradient></defs><defs><linearGradient id="grad1_6" x1="50%" y1="100%" x2="100%" y2="0%"><stop offset="10%" stop-color="#f9b4bf" stop-opacity="1"></stop><stop offset="90%" stop-color="#f79fbb" stop-opacity="1"></stop></linearGradient></defs><defs><linearGradient id="grad1_7" x1="50%" y1="100%" x2="100%" y2="0%"><stop offset="10%" stop-color="#f9b4bf" stop-opacity="1"></stop><stop offset="90%" stop-color="#f7caca" stop-opacity="1"></stop></linearGradient></defs><defs><linearGradient id="grad2_0" x1="0%" y1="100%" x2="50%" y2="0%"><stop offset="10%" stop-color="#715df2" stop-opacity="1"></stop><stop offset="90%" stop-color="#715df2" stop-opacity="1"></stop></linearGradient></defs><defs><linearGradient id="grad2_1" x1="0%" y1="100%" x2="50%" y2="0%"><stop offset="10%" stop-color="#a960e2" stop-opacity="1"></stop><stop offset="90%" stop-color="#715df2" stop-opacity="1"></stop></linearGradient></defs><defs><linearGradient id="grad2_2" x1="0%" y1="100%" x2="50%" y2="0%"><stop offset="10%" stop-color="#a960e2" stop-opacity="1"></stop><stop offset="90%" stop-color="#cc69d3" stop-opacity="1"></stop></linearGradient></defs><defs><linearGradient id="grad2_3" x1="0%" y1="100%" x2="50%" y2="0%"><stop offset="10%" stop-color="#e277c7" stop-opacity="1"></stop><stop offset="90%" stop-color="#cc69d3" stop-opacity="1"></stop></linearGradient></defs><defs><linearGradient id="grad2_4" x1="0%" y1="100%" x2="50%" y2="0%"><stop offset="10%" stop-color="#e277c7" stop-opacity="1"></stop><stop offset="90%" stop-color="#f08abe" stop-opacity="1"></stop></linearGradient></defs><defs><linearGradient id="grad2_5" x1="0%" y1="100%" x2="50%" y2="0%"><stop offset="10%" stop-color="#f79fbb" stop-opacity="1"></stop><stop offset="90%" stop-color="#f08abe" stop-opacity="1"></stop></linearGradient></defs><defs><linearGradient id="grad2_6" x1="0%" y1="100%" x2="50%" y2="0%"><stop offset="10%" stop-color="#f79fbb" stop-opacity="1"></stop><stop offset="90%" stop-color="#f9b4bf" stop-opacity="1"></stop></linearGradient></defs><defs><linearGradient id="grad2_7" x1="0%" y1="100%" x2="50%" y2="0%"><stop offset="10%" stop-color="#f7caca" stop-opacity="1"></stop><stop offset="90%" stop-color="#f9b4bf" stop-opacity="1"></stop></linearGradient></defs><g transform="translate(600, 300)"><path d="M-240 0C-240.9 -16.3 -241.8 -32.5 -241.3 -48C-240.7 -63.5 -238.7 -78.2 -242.1 -100.3C-245.4 -122.3 -254.1 -151.8 -237 -158.3C-219.8 -164.9 -176.8 -148.6 -163.3 -163.3C-149.9 -178.1 -166 -223.8 -156.7 -234.5C-147.4 -245.2 -112.7 -220.8 -91.5 -220.8C-70.3 -220.8 -62.5 -245.2 -49.6 -249.1C-36.6 -253 -18.3 -236.5 0 -220L0 0Z" fill="#f8bfc4"></path><path d="M-210 0C-210.8 -14.2 -211.6 -28.4 -211.1 -42C-210.6 -55.5 -208.9 -68.4 -211.8 -87.7C-214.7 -107 -222.4 -132.8 -207.3 -138.5C-192.3 -144.3 -154.7 -130 -142.9 -142.9C-131.1 -155.8 -145.2 -195.8 -137.1 -205.2C-128.9 -214.5 -98.6 -193.2 -80 -193.2C-61.5 -193.2 -54.7 -214.5 -43.4 -218C-32 -221.4 -16 -207 0 -192.5L0 0Z" fill="#f9a9bc"></path><path d="M-180 0C-180.7 -12.2 -181.4 -24.4 -181 -36C-180.5 -47.6 -179 -58.6 -181.5 -75.2C-184.1 -91.8 -190.6 -113.8 -177.7 -118.8C-164.9 -123.7 -132.6 -111.5 -122.5 -122.5C-112.4 -133.5 -124.5 -167.8 -117.5 -175.9C-110.5 -183.9 -84.5 -165.6 -68.6 -165.6C-52.7 -165.6 -46.9 -183.9 -37.2 -186.8C-27.4 -189.8 -13.7 -177.4 0 -165L0 0Z" fill="#f594bc"></path><path d="M-150 0C-150.6 -10.2 -151.1 -20.3 -150.8 -30C-150.5 -39.7 -149.2 -48.9 -151.3 -62.7C-153.4 -76.5 -158.8 -94.9 -148.1 -99C-137.4 -103.1 -110.5 -92.9 -102.1 -102.1C-93.7 -111.3 -103.7 -139.9 -97.9 -146.5C-92.1 -153.2 -70.4 -138 -57.2 -138C-43.9 -138 -39.1 -153.2 -31 -155.7C-22.8 -158.2 -11.4 -147.8 0 -137.5L0 0Z" fill="#ea80c2"></path><path d="M-120 0C-120.5 -8.1 -120.9 -16.3 -120.6 -24C-120.4 -31.7 -119.4 -39.1 -121 -50.1C-122.7 -61.2 -127.1 -75.9 -118.5 -79.2C-109.9 -82.5 -88.4 -74.3 -81.7 -81.7C-74.9 -89 -83 -111.9 -78.3 -117.2C-73.7 -122.6 -56.3 -110.4 -45.7 -110.4C-35.1 -110.4 -31.3 -122.6 -24.8 -124.6C-18.3 -126.5 -9.1 -118.3 0 -110L0 0Z" fill="#d86fcc"></path><path d="M-90 0C-90.3 -6.1 -90.7 -12.2 -90.5 -18C-90.3 -23.8 -89.5 -29.3 -90.8 -37.6C-92 -45.9 -95.3 -56.9 -88.9 -59.4C-82.4 -61.8 -66.3 -55.7 -61.3 -61.3C-56.2 -66.8 -62.2 -83.9 -58.8 -87.9C-55.3 -91.9 -42.2 -82.8 -34.3 -82.8C-26.3 -82.8 -23.5 -91.9 -18.6 -93.4C-13.7 -94.9 -6.9 -88.7 0 -82.5L0 0Z" fill="#bc63da"></path><path d="M-60 0C-60.2 -4.1 -60.5 -8.1 -60.3 -12C-60.2 -15.9 -59.7 -19.5 -60.5 -25.1C-61.4 -30.6 -63.5 -37.9 -59.2 -39.6C-55 -41.2 -44.2 -37.2 -40.8 -40.8C-37.5 -44.5 -41.5 -55.9 -39.2 -58.6C-36.8 -61.3 -28.2 -55.2 -22.9 -55.2C-17.6 -55.2 -15.6 -61.3 -12.4 -62.3C-9.1 -63.3 -4.6 -59.1 0 -55L0 0Z" fill="#915eea"></path><path d="M-30 0C-30.1 -2 -30.2 -4.1 -30.2 -6C-30.1 -7.9 -29.8 -9.8 -30.3 -12.5C-30.7 -15.3 -31.8 -19 -29.6 -19.8C-27.5 -20.6 -22.1 -18.6 -20.4 -20.4C-18.7 -22.3 -20.7 -28 -19.6 -29.3C-18.4 -30.6 -14.1 -27.6 -11.4 -27.6C-8.8 -27.6 -7.8 -30.6 -6.2 -31.1C-4.6 -31.6 -2.3 -29.6 0 -27.5L0 0Z" fill="#715df2"></path></g><g transform="translate(0, 0)"><path d="M285 0C280.9 18.7 276.8 37.4 268.7 53.5C260.7 69.5 248.6 83 243.9 101C239.2 119 241.8 141.5 231.1 154.4C220.5 167.4 196.5 170.9 178.9 178.9C161.3 186.8 150 199.2 134.4 201.2C118.9 203.2 99.3 194.8 86.5 208.8C73.7 222.8 67.9 259.3 54.6 274.6C41.4 289.9 20.7 283.9 0 278L0 0Z" fill="#f8bfc4"></path><path d="M249.4 0C245.8 16.3 242.2 32.7 235.1 46.8C228.1 60.9 217.5 72.7 213.4 88.4C209.3 104.1 211.6 123.8 202.3 135.1C192.9 146.5 172 149.6 156.5 156.5C141.1 163.5 131.2 174.3 117.6 176.1C104.1 177.8 86.8 170.4 75.7 182.7C64.5 195 59.4 226.9 47.8 240.3C36.2 253.7 18.1 248.5 0 243.3L0 0Z" fill="#f9a9bc"></path><path d="M213.8 0C210.7 14 207.6 28 201.6 40.1C195.5 52.2 186.5 62.3 182.9 75.8C179.4 89.3 181.4 106.1 173.4 115.8C165.4 125.6 147.4 128.2 134.2 134.2C120.9 140.1 112.5 149.4 100.8 150.9C89.2 152.4 74.4 146.1 64.9 156.6C55.3 167.1 50.9 194.5 41 206C31 217.4 15.5 213 0 208.5L0 0Z" fill="#f594bc"></path><path d="M178.1 0C175.6 11.7 173 23.4 168 33.4C162.9 43.5 155.4 51.9 152.4 63.1C149.5 74.4 151.1 88.4 144.5 96.5C137.8 104.6 122.8 106.8 111.8 111.8C100.8 116.8 93.7 124.5 84 125.8C74.3 127 62 121.7 54.1 130.5C46.1 139.3 42.4 162.1 34.1 171.6C25.9 181.2 12.9 177.5 0 173.8L0 0Z" fill="#ea80c2"></path><path d="M142.5 0C140.5 9.3 138.4 18.7 134.4 26.7C130.3 34.8 124.3 41.5 122 50.5C119.6 59.5 120.9 70.7 115.6 77.2C110.2 83.7 98.3 85.5 89.4 89.4C80.6 93.4 75 99.6 67.2 100.6C59.5 101.6 49.6 97.4 43.2 104.4C36.9 111.4 33.9 129.7 27.3 137.3C20.7 144.9 10.3 142 0 139L0 0Z" fill="#d86fcc"></path><path d="M106.9 0C105.3 7 103.8 14 100.8 20C97.7 26.1 93.2 31.1 91.5 37.9C89.7 44.6 90.7 53 86.7 57.9C82.7 62.8 73.7 64.1 67.1 67.1C60.5 70.1 56.2 74.7 50.4 75.5C44.6 76.2 37.2 73 32.4 78.3C27.6 83.6 25.5 97.3 20.5 103C15.5 108.7 7.8 106.5 0 104.3L0 0Z" fill="#bc63da"></path><path d="M71.3 0C70.2 4.7 69.2 9.3 67.2 13.4C65.2 17.4 62.2 20.8 61 25.3C59.8 29.8 60.5 35.4 57.8 38.6C55.1 41.9 49.1 42.7 44.7 44.7C40.3 46.7 37.5 49.8 33.6 50.3C29.7 50.8 24.8 48.7 21.6 52.2C18.4 55.7 17 64.8 13.7 68.7C10.3 72.5 5.2 71 0 69.5L0 0Z" fill="#915eea"></path><path d="M35.6 0C35.1 2.3 34.6 4.7 33.6 6.7C32.6 8.7 31.1 10.4 30.5 12.6C29.9 14.9 30.2 17.7 28.9 19.3C27.6 20.9 24.6 21.4 22.4 22.4C20.2 23.4 18.7 24.9 16.8 25.2C14.9 25.4 12.4 24.3 10.8 26.1C9.2 27.9 8.5 32.4 6.8 34.3C5.2 36.2 2.6 35.5 0 34.8L0 0Z" fill="#715df2"></path></g></svg>